<svg width="101" height="97" viewBox="0 0 101 97" fill="none" xmlns="http://www.w3.org/2000/svg">
<ellipse cx="50.5" cy="48.5" rx="50.5" ry="48.5" fill="#E2CCD4"/>
<path d="M32.5352 26.7656C32.5352 26.9062 32.5312 27.0508 32.5234 27.1992C32.5234 27.3398 32.5078 27.4766 32.4766 27.6094C32.4609 27.6797 32.4258 27.7578 32.3711 27.8438C32.3164 27.9219 32.25 28 32.1719 28.0781C32.1016 28.1484 32.0234 28.2109 31.9375 28.2656C31.8516 28.3125 31.7734 28.3359 31.7031 28.3359C31.5859 28.3359 31.5117 28.2891 31.4805 28.1953C31.4492 28.1016 31.4258 28 31.4102 27.8906C31.4023 27.7812 31.3789 27.6797 31.3398 27.5859C31.3086 27.4922 31.2305 27.4453 31.1055 27.4453C31.0664 27.4453 31.0312 27.4531 31 27.4688C30.9766 27.4844 30.9453 27.4922 30.9062 27.4922C30.8906 27.4922 30.875 27.4453 30.8594 27.3516C30.8438 27.2578 30.8242 27.1445 30.8008 27.0117C30.7773 26.8789 30.75 26.7461 30.7188 26.6133C30.6875 26.4727 30.6523 26.3555 30.6133 26.2617C30.543 26.1133 30.4688 25.9609 30.3906 25.8047C30.3203 25.6406 30.2852 25.4688 30.2852 25.2891C30.2852 25.1641 30.3086 25.0586 30.3555 24.9727C30.4023 24.8789 30.4531 24.793 30.5078 24.7148C30.5625 24.6367 30.6133 24.5586 30.6602 24.4805C30.707 24.4023 30.7305 24.3086 30.7305 24.1992C30.7305 24.043 30.6797 23.9062 30.5781 23.7891C30.4766 23.6719 30.3477 23.5781 30.1914 23.5078C30.043 23.4297 29.8828 23.375 29.7109 23.3438C29.5469 23.3047 29.4023 23.2852 29.2773 23.2852C29.0664 23.2852 28.8594 23.3125 28.6562 23.3672C28.4609 23.4141 28.2617 23.4727 28.0586 23.543C27.8633 23.6133 27.668 23.6875 27.4727 23.7656C27.2773 23.8438 27.082 23.9102 26.8867 23.9648C26.9258 24.0742 26.9492 24.1875 26.957 24.3047C26.9727 24.4219 26.9805 24.5391 26.9805 24.6562C26.9805 24.9219 26.9688 25.1875 26.9453 25.4531C26.9219 25.7109 26.9102 25.9727 26.9102 26.2383C26.9102 26.5273 26.9258 26.8164 26.957 27.1055C26.9883 27.3867 27.0195 27.668 27.0508 27.9492C27.0898 28.2305 27.125 28.5156 27.1562 28.8047C27.1875 29.0859 27.2031 29.3672 27.2031 29.6484C27.2031 29.9922 27.1445 30.3281 27.0273 30.6562C27.0039 30.7188 26.9922 30.7695 26.9922 30.8086C26.9922 30.8945 27.0117 30.9805 27.0508 31.0664C27.0898 31.1445 27.1328 31.2305 27.1797 31.3242C27.2344 31.4102 27.2812 31.5 27.3203 31.5938C27.3594 31.6875 27.3789 31.7852 27.3789 31.8867C27.3789 31.9805 27.3633 32.0703 27.332 32.1562C27.3008 32.2422 27.2852 32.3281 27.2852 32.4141C27.2852 32.5391 27.3008 32.6602 27.332 32.7773C27.3711 32.8945 27.3906 33.0156 27.3906 33.1406C27.3906 33.2109 27.3711 33.2539 27.332 33.2695C27.3008 33.2852 27.2617 33.293 27.2148 33.293C27.168 33.293 27.125 33.2969 27.0859 33.3047C27.0547 33.3047 27.0391 33.3242 27.0391 33.3633C27.0391 33.4805 27.0625 33.5938 27.1094 33.7031C27.1641 33.8047 27.1914 33.9141 27.1914 34.0312C27.1914 34.1328 27.168 34.2305 27.1211 34.3242C27.082 34.4102 27.0625 34.5039 27.0625 34.6055C27.0625 34.707 27.1055 34.7969 27.1914 34.875C27.2852 34.9531 27.3516 35.0469 27.3906 35.1562C27.4297 35.2891 27.4609 35.4414 27.4844 35.6133C27.5156 35.7852 27.5703 35.9492 27.6484 36.1055C27.7344 36.2617 27.8633 36.3945 28.0352 36.5039C28.207 36.6055 28.4609 36.6562 28.7969 36.6562H29.1367C29.2305 36.6562 29.3438 36.6641 29.4766 36.6797C29.6172 36.6953 29.75 36.7266 29.875 36.7734C30.0078 36.8125 30.1172 36.875 30.2031 36.9609C30.2969 37.0391 30.3438 37.1406 30.3438 37.2656C30.3438 37.3906 30.3203 37.5117 30.2734 37.6289C30.2266 37.7461 30.2031 37.8672 30.2031 37.9922C30.2031 38.0312 30.2109 38.0898 30.2266 38.168C30.1094 38.168 30.0039 38.1953 29.9102 38.25C29.8242 38.2969 29.7617 38.3789 29.7227 38.4961C29.5664 38.4648 29.4062 38.4453 29.2422 38.4375C29.0859 38.4219 28.9297 38.4141 28.7734 38.4141C28.375 38.4141 27.9805 38.4453 27.5898 38.5078C27.1992 38.5625 26.8047 38.625 26.4062 38.6953C26.0156 38.7578 25.6211 38.8203 25.2227 38.8828C24.832 38.9375 24.4375 38.9648 24.0391 38.9648C23.9062 38.9648 23.7422 38.9609 23.5469 38.9531C23.3516 38.9453 23.1641 38.918 22.9844 38.8711C22.8047 38.8242 22.6484 38.7539 22.5156 38.6602C22.3906 38.5586 22.3281 38.4141 22.3281 38.2266C22.3281 38.0078 22.3477 37.8477 22.3867 37.7461C22.4336 37.6367 22.4883 37.5625 22.5508 37.5234C22.6133 37.4766 22.6836 37.4492 22.7617 37.4414C22.8477 37.4336 22.9297 37.418 23.0078 37.3945C23.0312 37.3711 23.043 37.3477 23.043 37.3242C23.043 37.2852 23.0234 37.2539 22.9844 37.2305C22.9531 37.1992 22.918 37.1758 22.8789 37.1602C23.0117 37.043 23.1602 36.9609 23.3242 36.9141C23.4961 36.8672 23.668 36.8359 23.8398 36.8203C24.0195 36.8047 24.1992 36.7891 24.3789 36.7734C24.5586 36.7578 24.7266 36.7188 24.8828 36.6562C24.9453 36.6328 25.0117 36.5664 25.082 36.457C25.1523 36.3477 25.2148 36.2266 25.2695 36.0938C25.332 35.9609 25.3789 35.8281 25.4102 35.6953C25.4492 35.5625 25.4688 35.4609 25.4688 35.3906V35.3672C25.4141 34.9922 25.3711 34.625 25.3398 34.2656C25.3086 33.9062 25.293 33.5391 25.293 33.1641C25.293 33.1328 25.3047 33.082 25.3281 33.0117C25.3516 32.9336 25.3828 32.8555 25.4219 32.7773C25.4531 32.6914 25.4961 32.5938 25.5508 32.4844C25.4883 32.3828 25.4336 32.2891 25.3867 32.2031C25.3477 32.125 25.3125 32.0508 25.2812 31.9805C25.25 31.9102 25.2344 31.8555 25.2344 31.8164C25.2344 31.7227 25.25 31.6328 25.2812 31.5469C25.3125 31.4609 25.3359 31.375 25.3516 31.2891C25.3984 30.9609 25.4219 30.6289 25.4219 30.293C25.4219 30.1523 25.4102 30.0156 25.3867 29.8828C25.3711 29.7422 25.3477 29.6055 25.3164 29.4727C25.2148 28.9961 25.1641 28.5039 25.1641 27.9961C25.1641 27.4023 25.2031 26.8125 25.2812 26.2266C25.3594 25.6406 25.3984 25.0508 25.3984 24.457C25.3984 24.2539 25.3633 24.0977 25.293 23.9883C25.2227 23.8711 25.0859 23.7812 24.8828 23.7188C24.6094 23.6406 24.3242 23.5781 24.0273 23.5312C23.7383 23.4844 23.4492 23.4609 23.1602 23.4609C22.9414 23.4609 22.7109 23.4883 22.4688 23.543C22.2344 23.5898 22.0156 23.6719 21.8125 23.7891C21.6172 23.8984 21.4531 24.0469 21.3203 24.2344C21.1953 24.4141 21.1328 24.6328 21.1328 24.8906C21.1328 25.0234 21.1406 25.1523 21.1562 25.2773C21.1719 25.4023 21.1797 25.5312 21.1797 25.6641C21.1797 25.7891 21.1523 25.8984 21.0977 25.9922C21.0508 26.0781 21.0273 26.1641 21.0273 26.25C21.0273 26.3672 21.0586 26.4766 21.1211 26.5781C21.1836 26.6797 21.2148 26.7891 21.2148 26.9062C21.2148 26.9844 21.1953 27.0703 21.1562 27.1641C21.125 27.2578 21.0859 27.3555 21.0391 27.457C20.9922 27.5508 20.9453 27.6445 20.8984 27.7383C20.8594 27.832 20.8281 27.918 20.8047 27.9961C20.7656 28.1133 20.7148 28.2148 20.6523 28.3008C20.5898 28.3867 20.4922 28.4297 20.3594 28.4297C20.25 28.4297 20.1484 28.3945 20.0547 28.3242C19.9609 28.2461 19.9141 28.1523 19.9141 28.043C19.9141 27.957 19.9336 27.8906 19.9727 27.8438C20.0195 27.7891 20.043 27.7266 20.043 27.6562C20.043 27.5781 20.0273 27.5 19.9961 27.4219C19.9648 27.3359 19.9258 27.2539 19.8789 27.1758C19.8398 27.0898 19.8047 27.0039 19.7734 26.918C19.7422 26.832 19.7266 26.7461 19.7266 26.6602C19.7266 26.5508 19.7422 26.4453 19.7734 26.3438C19.8125 26.2422 19.832 26.1367 19.832 26.0273C19.832 25.793 19.793 25.5625 19.7148 25.3359C19.6445 25.1094 19.6094 24.8789 19.6094 24.6445C19.6094 24.4336 19.6328 24.1836 19.6797 23.8945C19.7266 23.6055 19.8047 23.3281 19.9141 23.0625C20.0312 22.7969 20.1797 22.5742 20.3594 22.3945C20.5469 22.207 20.7812 22.1133 21.0625 22.1133C21.2578 22.1133 21.4492 22.1367 21.6367 22.1836C21.832 22.2227 22.0312 22.2422 22.2344 22.2422C22.4609 22.2422 22.6875 22.2227 22.9141 22.1836C23.1406 22.1445 23.3672 22.125 23.5938 22.125C23.75 22.125 23.8945 22.1523 24.0273 22.207C24.168 22.2539 24.3164 22.2773 24.4727 22.2773C24.5664 22.2773 24.6445 22.2578 24.707 22.2188C24.7773 22.1719 24.8555 22.1484 24.9414 22.1484C25.0352 22.1484 25.125 22.1719 25.2109 22.2188C25.3047 22.2578 25.3984 22.2773 25.4922 22.2773C25.5781 22.2773 25.6562 22.2656 25.7266 22.2422C25.8047 22.2188 25.8828 22.207 25.9609 22.207C26.0781 22.207 26.1914 22.2227 26.3008 22.2539C26.418 22.2852 26.5312 22.3008 26.6406 22.3008L28.0586 22.125C28.2695 22.1094 28.4805 22.0938 28.6914 22.0781C28.9023 22.0625 29.1172 22.0547 29.3359 22.0547C29.7109 22.0547 30.082 22.0859 30.4492 22.1484C30.8242 22.2031 31.1992 22.2734 31.5742 22.3594V22.3711C31.832 22.4336 32.0156 22.5664 32.125 22.7695C32.2344 22.9727 32.3047 23.207 32.3359 23.4727C32.375 23.7305 32.3906 23.9961 32.3828 24.2695C32.375 24.543 32.3789 24.7773 32.3945 24.9727C32.418 25.2695 32.4453 25.5703 32.4766 25.875C32.5156 26.1719 32.5352 26.4688 32.5352 26.7656ZM47.0312 31.1133C47.0312 31.2773 47.0156 31.4375 46.9844 31.5938C46.9531 31.7422 46.918 31.8945 46.8789 32.0508C46.8398 32.1992 46.8047 32.3516 46.7734 32.5078C46.7422 32.6641 46.7266 32.8203 46.7266 32.9766C46.7266 33.0391 46.7305 33.1016 46.7383 33.1641C46.7539 33.2188 46.7617 33.2773 46.7617 33.3398C46.7617 33.4961 46.7344 33.6445 46.6797 33.7852C46.6328 33.9258 46.5742 34.0625 46.5039 34.1953C46.4414 34.3125 46.4023 34.4336 46.3867 34.5586C46.3789 34.6836 46.3711 34.8086 46.3633 34.9336C46.3633 35.0586 46.3516 35.1836 46.3281 35.3086C46.3047 35.4336 46.2578 35.5508 46.1875 35.6602C46.1719 35.7383 46.1484 35.8555 46.1172 36.0117C46.0938 36.1602 46.0625 36.2656 46.0234 36.3281C46.0156 36.3438 45.9922 36.3555 45.9531 36.3633C45.9141 36.3711 45.8711 36.3789 45.8242 36.3867C45.7773 36.3945 45.7266 36.4102 45.6719 36.4336C45.6172 36.457 45.5703 36.4922 45.5312 36.5391C45.4922 36.5781 45.4609 36.6328 45.4375 36.7031C45.4141 36.7734 45.3867 36.8438 45.3555 36.9141C45.3242 36.9844 45.2852 37.0469 45.2383 37.1016C45.1992 37.1484 45.1445 37.1719 45.0742 37.1719C45.0039 37.1719 44.9414 37.1602 44.8867 37.1367C44.832 37.1055 44.7773 37.0781 44.7227 37.0547C44.668 37.0234 44.6133 37 44.5586 36.9844C44.5039 36.9688 44.4375 36.9727 44.3594 36.9961C44.3828 37.0117 44.3906 37.0508 44.3828 37.1133C44.375 37.168 44.375 37.2266 44.3828 37.2891C44.3984 37.3516 44.4336 37.4102 44.4883 37.4648C44.543 37.5195 44.6406 37.5469 44.7812 37.5469C44.8516 37.5469 44.918 37.543 44.9805 37.5352C45.0508 37.5273 45.1211 37.5156 45.1914 37.5C45.1289 37.6719 45.0547 37.8086 44.9688 37.9102C44.8828 38.0039 44.7852 38.0898 44.6758 38.168C44.5742 38.2383 44.4648 38.3125 44.3477 38.3906C44.2383 38.4609 44.1289 38.5547 44.0195 38.6719C43.8867 38.8047 43.7578 38.8867 43.6328 38.918C43.5156 38.9492 43.375 38.9883 43.2109 39.0352C43.0234 39.0898 42.8906 39.1562 42.8125 39.2344C42.7344 39.3125 42.6484 39.3867 42.5547 39.457C42.4609 39.5273 42.332 39.5859 42.168 39.6328C42.0117 39.6875 41.7617 39.7148 41.418 39.7148C41.1055 39.7148 40.793 39.7031 40.4805 39.6797C40.1758 39.6562 39.8711 39.625 39.5664 39.5859C39.4258 39.5703 39.3086 39.543 39.2148 39.5039C39.1289 39.4727 39.0469 39.4336 38.9688 39.3867C38.8906 39.3477 38.8125 39.3047 38.7344 39.2578C38.6562 39.2109 38.5586 39.1641 38.4414 39.1172C38.3789 39.0938 38.3047 39.0625 38.2188 39.0234C38.1328 38.9922 38.043 38.957 37.9492 38.918C37.8555 38.8789 37.7695 38.8398 37.6914 38.8008C37.6133 38.7539 37.5508 38.7109 37.5039 38.6719C37.4492 38.625 37.4102 38.5742 37.3867 38.5195C37.3711 38.457 37.3555 38.3945 37.3398 38.332C37.3242 38.2617 37.3047 38.1992 37.2812 38.1445C37.2656 38.082 37.2305 38.0312 37.1758 37.9922C37.0586 37.9766 36.9453 37.957 36.8359 37.9336C36.7266 37.9023 36.6172 37.8672 36.5078 37.8281C36.4766 37.7422 36.4453 37.6602 36.4141 37.582C36.3906 37.4961 36.3633 37.4102 36.332 37.3242C36.2305 37.2148 36.1328 37.125 36.0391 37.0547C35.9453 36.9766 35.8633 36.8984 35.793 36.8203C35.7227 36.7422 35.6602 36.6523 35.6055 36.5508C35.5586 36.4414 35.5273 36.3008 35.5117 36.1289C35.4883 35.9258 35.4414 35.7305 35.3711 35.543C35.3008 35.3477 35.2266 35.1562 35.1484 34.9688C35.0781 34.7812 35.0117 34.5898 34.9492 34.3945C34.8945 34.1992 34.8672 34 34.8672 33.7969C34.8672 33.5859 34.9102 33.3711 34.9961 33.1523C34.7695 32.832 34.6289 32.4844 34.5742 32.1094C34.5195 31.7266 34.4922 31.3438 34.4922 30.9609C34.4922 30.8359 34.4922 30.7148 34.4922 30.5977C34.5 30.4727 34.5039 30.3516 34.5039 30.2344C34.5039 30.1016 34.4727 30 34.4102 29.9297C34.3555 29.8516 34.3281 29.7578 34.3281 29.6484C34.3281 29.4766 34.3516 29.3086 34.3984 29.1445C34.4531 28.9805 34.4883 28.8125 34.5039 28.6406C34.4023 28.625 34.3359 28.5859 34.3047 28.5234L34.3281 28.4766C34.3828 28.3828 34.4258 28.2969 34.457 28.2188C34.4961 28.1406 34.5234 28.0664 34.5391 27.9961C34.5547 27.9258 34.5703 27.8516 34.5859 27.7734C34.6016 27.6953 34.6211 27.6055 34.6445 27.5039C34.707 27.1836 34.7852 26.8711 34.8789 26.5664C34.9805 26.2617 35.0781 25.9531 35.1719 25.6406C35.2734 25.2812 35.3984 24.9648 35.5469 24.6914C35.6953 24.418 35.9258 24.1641 36.2383 23.9297C36.3711 23.8203 36.4922 23.7031 36.6016 23.5781C36.7109 23.4531 36.7891 23.3047 36.8359 23.1328C36.875 23.1016 36.918 23.082 36.9648 23.0742C37.0117 23.0664 37.0586 23.0625 37.1055 23.0625H37.1992C37.2539 23.0625 37.3047 23.0586 37.3516 23.0508C37.4062 23.0352 37.457 23.0078 37.5039 22.9688C37.6211 22.8594 37.7227 22.7812 37.8086 22.7344C37.9023 22.6875 38.0273 22.6641 38.1836 22.6641C38.293 22.6641 38.3984 22.6758 38.5 22.6992C38.6016 22.7148 38.707 22.7344 38.8164 22.7578C38.8555 22.7188 38.9102 22.668 38.9805 22.6055C39.0586 22.5352 39.125 22.4883 39.1797 22.4648V22.5C39.1797 22.5312 39.1836 22.5625 39.1914 22.5938C39.207 22.6172 39.2344 22.6289 39.2734 22.6289C39.375 22.6289 39.4727 22.6055 39.5664 22.5586C39.6602 22.5117 39.7578 22.4805 39.8594 22.4648C40.0859 22.4258 40.3125 22.3672 40.5391 22.2891C40.7656 22.2031 40.9961 22.1602 41.2305 22.1602C41.4805 22.1602 41.7461 22.1758 42.0273 22.207C42.3164 22.2383 42.5977 22.2969 42.8711 22.3828C43.1445 22.4688 43.3984 22.5898 43.6328 22.7461C43.8672 22.8945 44.0547 23.0898 44.1953 23.332C44.2578 23.4414 44.3203 23.5273 44.3828 23.5898C44.4453 23.6445 44.5078 23.6953 44.5703 23.7422C44.6328 23.7812 44.6953 23.8242 44.7578 23.8711C44.8203 23.9102 44.8867 23.9688 44.957 24.0469C45.1055 24.2188 45.2227 24.4062 45.3086 24.6094C45.4023 24.8047 45.5312 24.9805 45.6953 25.1367C45.8984 25.3242 46.0469 25.5508 46.1406 25.8164C46.2422 26.082 46.293 26.3516 46.293 26.625C46.293 26.7109 46.2812 26.7969 46.2578 26.8828C46.2344 26.9688 46.2227 27.0586 46.2227 27.1523C46.2227 27.2305 46.2383 27.3125 46.2695 27.3984C46.3086 27.4844 46.3516 27.5742 46.3984 27.668C46.4453 27.7617 46.4883 27.8594 46.5273 27.9609C46.5664 28.0625 46.5938 28.1602 46.6094 28.2539C46.6328 28.4648 46.668 28.6719 46.7148 28.875C46.7617 29.0703 46.8086 29.2734 46.8555 29.4844C46.918 29.75 46.9648 30.0195 46.9961 30.293C47.0273 30.5664 47.0391 30.8398 47.0312 31.1133ZM45.1211 31.0312C45.1211 30.5938 45.082 30.1602 45.0039 29.7305C44.9336 29.3008 44.8633 28.8711 44.793 28.4414C44.7617 28.2852 44.7109 28.1367 44.6406 27.9961C44.5781 27.8555 44.5234 27.7109 44.4766 27.5625C44.3828 27.2812 44.293 27 44.207 26.7188C44.1211 26.4375 44.0352 26.1562 43.9492 25.875C43.8945 25.7031 43.7852 25.5547 43.6211 25.4297C43.457 25.2969 43.2656 25.1875 43.0469 25.1016C42.8281 25.0078 42.5898 24.9336 42.332 24.8789C42.082 24.8164 41.8398 24.7695 41.6055 24.7383C41.3711 24.6992 41.1523 24.6758 40.9492 24.668C40.7539 24.6523 40.6055 24.6445 40.5039 24.6445L40.6562 24.6328L40.5273 24.6445C40.3555 24.6445 40.1836 24.6367 40.0117 24.6211C39.8477 24.6055 39.6797 24.5977 39.5078 24.5977C39.3672 24.5977 39.2266 24.6094 39.0859 24.6328C38.9531 24.6484 38.832 24.6992 38.7227 24.7852C38.4648 24.9883 38.2227 25.1797 37.9961 25.3594C37.7695 25.5312 37.582 25.7695 37.4336 26.0742C37.3867 26.1758 37.3359 26.25 37.2812 26.2969C37.2266 26.3359 37.1719 26.3789 37.1172 26.4258C37.0703 26.4648 37.0273 26.5117 36.9883 26.5664C36.9492 26.6211 36.9219 26.7109 36.9062 26.8359C36.8672 27.0625 36.8203 27.2891 36.7656 27.5156C36.7188 27.7344 36.6953 27.957 36.6953 28.1836C36.6953 28.4258 36.6719 28.668 36.625 28.9102C36.5859 29.1445 36.5195 29.375 36.4258 29.6016C36.4023 29.6641 36.3789 29.7227 36.3555 29.7773C36.3398 29.832 36.332 29.8906 36.332 29.9531C36.332 30.0703 36.3594 30.1719 36.4141 30.2578C36.4688 30.3359 36.4961 30.4062 36.4961 30.4688C36.4961 30.5 36.4844 30.5195 36.4609 30.5273C36.4453 30.5273 36.4258 30.5352 36.4023 30.5508C36.3867 30.5586 36.3672 30.582 36.3438 30.6211C36.3281 30.6602 36.3203 30.7305 36.3203 30.832C36.3203 31.0586 36.3203 31.2891 36.3203 31.5234C36.3281 31.7578 36.3516 31.9883 36.3906 32.2148C36.4141 32.3477 36.4531 32.4766 36.5078 32.6016C36.5703 32.7188 36.6016 32.8438 36.6016 32.9766C36.6016 33.0625 36.582 33.1484 36.543 33.2344C36.5039 33.3203 36.4844 33.4102 36.4844 33.5039C36.4844 33.6133 36.5156 33.7031 36.5781 33.7734C36.6406 33.8359 36.7031 33.9102 36.7656 33.9961C36.8125 34.0586 36.8516 34.1406 36.8828 34.2422C36.9219 34.3359 36.957 34.4258 36.9883 34.5117C37.0273 34.5977 37.0625 34.6719 37.0938 34.7344C37.125 34.7969 37.1602 34.8281 37.1992 34.8281C37.2305 34.8281 37.2578 34.8242 37.2812 34.8164C37.3047 34.8008 37.332 34.793 37.3633 34.793C37.5195 34.793 37.6367 34.8633 37.7148 35.0039C37.8008 35.1367 37.8438 35.2695 37.8438 35.4023C37.8438 35.5117 37.875 35.6055 37.9375 35.6836C38 35.7539 38.0742 35.8203 38.1602 35.8828C38.2461 35.9453 38.332 36.0078 38.418 36.0703C38.5117 36.125 38.5898 36.1875 38.6523 36.2578C38.7539 36.375 38.832 36.4531 38.8867 36.4922C38.9492 36.5312 39.0039 36.5586 39.0508 36.5742C39.0977 36.582 39.1406 36.5898 39.1797 36.5977C39.2266 36.6055 39.2852 36.6328 39.3555 36.6797C39.4414 36.7422 39.5273 36.8125 39.6133 36.8906C39.707 36.9609 39.7969 37.0273 39.8828 37.0898C40.125 37.2617 40.3945 37.3672 40.6914 37.4062C40.9961 37.4375 41.293 37.4531 41.582 37.4531C41.6992 37.4531 41.8086 37.4258 41.9102 37.3711C42.0117 37.3164 42.1133 37.2578 42.2148 37.1953C42.3164 37.125 42.418 37.0625 42.5195 37.0078C42.6289 36.9531 42.7461 36.9258 42.8711 36.9258C42.9727 36.9258 43.0781 36.9492 43.1875 36.9961C43.3672 36.7227 43.5391 36.5039 43.7031 36.3398C43.8672 36.1758 44.0156 36.0156 44.1484 35.8594C44.2812 35.7031 44.3945 35.5234 44.4883 35.3203C44.582 35.1172 44.6484 34.8398 44.6875 34.4883C44.7031 34.3398 44.7422 34.2031 44.8047 34.0781C44.875 33.9453 44.918 33.8086 44.9336 33.668C44.9727 33.3555 44.9922 33.043 44.9922 32.7305C45 32.418 45.0273 32.1055 45.0742 31.793C45.0898 31.668 45.1016 31.543 45.1094 31.418C45.1172 31.293 45.1211 31.1641 45.1211 31.0312ZM69.0039 31.4648C69.0039 31.6992 68.9805 31.9727 68.9336 32.2852C68.8867 32.5898 68.8203 32.9141 68.7344 33.2578C68.6562 33.5938 68.5625 33.9414 68.4531 34.3008C68.3516 34.6602 68.2422 35.0078 68.125 35.3438C68.0078 35.6719 67.8867 35.9805 67.7617 36.2695C67.6445 36.5508 67.5312 36.7891 67.4219 36.9844C67.375 37.0625 67.3008 37.1445 67.1992 37.2305C67.1055 37.3086 67.0078 37.3945 66.9062 37.4883C66.8047 37.5742 66.7148 37.6602 66.6367 37.7461C66.5586 37.832 66.5195 37.9141 66.5195 37.9922C66.457 38 66.3594 38.0195 66.2266 38.0508C66.0938 38.0742 65.9531 38.1094 65.8047 38.1562C65.6641 38.1953 65.5312 38.2422 65.4062 38.2969C65.2891 38.3438 65.2188 38.3906 65.1953 38.4375C65.1094 38.6016 65.0547 38.7109 65.0312 38.7656C65.0156 38.8203 64.9961 38.8555 64.9727 38.8711C64.9492 38.8789 64.9023 38.8828 64.832 38.8828C64.7695 38.875 64.6445 38.8906 64.457 38.9297C64.3867 38.9453 64.2969 38.9688 64.1875 39C64.0859 39.0312 63.9766 39.0625 63.8594 39.0938C63.75 39.125 63.6445 39.1484 63.543 39.1641C63.4414 39.1875 63.3594 39.1992 63.2969 39.1992C63.125 39.1992 62.957 39.1719 62.793 39.1172C62.6367 39.0625 62.4727 39.0352 62.3008 39.0352C62.1914 39.0352 62.0938 39.0508 62.0078 39.082C61.7188 39.1914 61.4414 39.2695 61.1758 39.3164C60.918 39.3633 60.6328 39.3867 60.3203 39.3867L58.668 39.1641C58.543 39.1953 58.418 39.2148 58.293 39.2227C58.168 39.2383 58.043 39.2461 57.918 39.2461C57.7617 39.2461 57.6055 39.2383 57.4492 39.2227C57.3008 39.207 57.1484 39.1875 56.9922 39.1641C56.9688 39.0469 56.9297 38.9375 56.875 38.8359C56.8281 38.7266 56.7812 38.6172 56.7344 38.5078C56.6875 38.3984 56.6445 38.2891 56.6055 38.1797C56.5664 38.0625 56.5469 37.9453 56.5469 37.8281C56.5469 37.625 56.5977 37.4805 56.6992 37.3945C56.8008 37.3008 56.9297 37.2383 57.0859 37.207C57.2422 37.168 57.4062 37.1406 57.5781 37.125C57.7578 37.1016 57.9258 37.0547 58.082 36.9844C58.2383 36.9141 58.3672 36.8047 58.4688 36.6562C58.5703 36.5078 58.6211 36.2852 58.6211 35.9883C58.6211 35.8086 58.6055 35.6289 58.5742 35.4492C58.5508 35.2695 58.5195 35.0898 58.4805 34.9102C58.4492 34.7227 58.418 34.5391 58.3867 34.3594C58.3633 34.1797 58.3516 34 58.3516 33.8203C58.3516 33.6875 58.3633 33.5586 58.3867 33.4336C58.4102 33.3008 58.4219 33.168 58.4219 33.0352C58.4219 32.793 58.4023 32.5547 58.3633 32.3203C58.332 32.0781 58.3164 31.8359 58.3164 31.5938C58.3164 31.3125 58.332 31.0352 58.3633 30.7617C58.3945 30.4805 58.4102 30.1992 58.4102 29.918C58.4102 29.6523 58.3828 29.3945 58.3281 29.1445C58.2812 28.8867 58.2578 28.6211 58.2578 28.3477C58.2578 28.1992 58.2617 28.0508 58.2695 27.9023C58.2773 27.7539 58.2812 27.6055 58.2812 27.457C58.2812 27.2852 58.2734 27.1211 58.2578 26.9648C58.2422 26.8008 58.2109 26.6367 58.1641 26.4727C58.1094 26.2773 58.0781 26.0859 58.0703 25.8984C58.0625 25.7109 58.0391 25.543 58 25.3945C57.9609 25.2383 57.8867 25.1055 57.7773 24.9961C57.668 24.8789 57.4844 24.793 57.2266 24.7383C57.1406 24.7227 57.0742 24.6992 57.0273 24.668C56.9883 24.6289 56.9492 24.5938 56.9102 24.5625C56.8711 24.5234 56.8203 24.4883 56.7578 24.457C56.7031 24.4258 56.6172 24.4023 56.5 24.3867C56.1562 24.3398 55.9844 24.1484 55.9844 23.8125C55.9844 23.625 56.0195 23.4609 56.0898 23.3203C56.1602 23.1719 56.25 23.0391 56.3594 22.9219C56.4688 22.8047 56.5898 22.6992 56.7227 22.6055C56.8633 22.5039 57 22.4023 57.1328 22.3008C57.3359 22.1445 57.5273 22.0508 57.707 22.0195C57.8867 21.9805 58.0781 21.9609 58.2812 21.9609H58.7852C59.0117 21.9609 59.2344 21.9531 59.4531 21.9375C59.6797 21.9141 59.9062 21.9023 60.1328 21.9023C60.2656 21.9023 60.3984 21.9102 60.5312 21.9258C60.6719 21.9414 60.8086 21.9688 60.9414 22.0078C61.0117 22.0312 61.0781 22.0586 61.1406 22.0898C61.2109 22.1133 61.2812 22.125 61.3516 22.125C61.4609 22.125 61.5547 22.0938 61.6328 22.0312C61.7109 21.9609 61.7812 21.9258 61.8438 21.9258C61.8594 21.9258 61.8672 21.9336 61.8672 21.9492C61.8672 21.9648 61.8633 21.9844 61.8555 22.0078C61.8555 22.0234 61.8555 22.0391 61.8555 22.0547C61.8555 22.1016 61.8867 22.125 61.9492 22.125C61.9883 22.125 62.0156 22.1016 62.0312 22.0547C62.0547 22.0078 62.1016 21.9766 62.1719 21.9609C62.2266 21.9844 62.2695 22.0117 62.3008 22.043C62.332 22.0664 62.3594 22.0898 62.3828 22.1133C62.4141 22.1367 62.4492 22.1562 62.4883 22.1719C62.5352 22.1875 62.5938 22.1953 62.6641 22.1953C62.8281 22.1953 62.9922 22.1836 63.1562 22.1602C63.3203 22.1289 63.4844 22.1133 63.6484 22.1133C63.8594 22.1133 64.0547 22.1484 64.2344 22.2188C64.4141 22.2891 64.582 22.3789 64.7383 22.4883C64.9023 22.5898 65.0586 22.707 65.207 22.8398C65.3555 22.9727 65.5039 23.1016 65.6523 23.2266C65.7617 23.3203 65.8711 23.3945 65.9805 23.4492C66.0977 23.4961 66.207 23.5469 66.3086 23.6016C66.4102 23.6484 66.5078 23.7109 66.6016 23.7891C66.6953 23.8594 66.7773 23.9688 66.8477 24.1172C66.9258 24.2812 67.0156 24.4414 67.1172 24.5977C67.2266 24.7461 67.332 24.8945 67.4336 25.043C67.543 25.1836 67.6484 25.332 67.75 25.4883C67.8516 25.6367 67.9414 25.7969 68.0195 25.9688C68.2148 26.4141 68.3516 26.8828 68.4297 27.375C68.5156 27.8594 68.6016 28.3398 68.6875 28.8164C68.7266 29.0195 68.7695 29.2266 68.8164 29.4375C68.8633 29.6406 68.8867 29.8438 68.8867 30.0469C68.8867 30.1562 68.8672 30.2617 68.8281 30.3633C68.7891 30.4648 68.7695 30.5703 68.7695 30.6797C68.7695 30.75 68.7812 30.8125 68.8047 30.8672C68.8281 30.9219 68.8555 30.9766 68.8867 31.0312C68.918 31.0859 68.9453 31.1484 68.9688 31.2188C68.9922 31.2891 69.0039 31.3711 69.0039 31.4648ZM67.0469 30.6797C67.0469 30.375 67.0039 30.0781 66.918 29.7891C66.832 29.5 66.6992 29.2305 66.5195 28.9805C66.6055 28.8945 66.6602 28.793 66.6836 28.6758C66.707 28.5586 66.7188 28.4453 66.7188 28.3359C66.7188 28.2188 66.7109 28.1016 66.6953 27.9844C66.6875 27.8672 66.6836 27.7539 66.6836 27.6445C66.6836 27.582 66.6602 27.5273 66.6133 27.4805C66.5742 27.4336 66.5273 27.3906 66.4727 27.3516C66.4258 27.3047 66.375 27.2617 66.3203 27.2227C66.2656 27.1758 66.2266 27.1211 66.2031 27.0586C66.1719 26.9805 66.1484 26.9141 66.1328 26.8594C66.125 26.7969 66.1172 26.7383 66.1094 26.6836C66.1016 26.6289 66.0859 26.5703 66.0625 26.5078C66.0391 26.4453 66 26.3711 65.9453 26.2852C65.9062 26.2227 65.875 26.1641 65.8516 26.1094C65.8281 26.0469 65.8164 25.9727 65.8164 25.8867C65.8164 25.8086 65.8281 25.7266 65.8516 25.6406C65.8203 25.5781 65.7695 25.5273 65.6992 25.4883C65.6289 25.4414 65.5508 25.4062 65.4648 25.3828C65.3711 25.3516 65.2656 25.3281 65.1484 25.3125C65.0312 25.3125 64.9062 25.2773 64.7734 25.207C64.6484 25.1367 64.5156 25.0586 64.375 24.9727C64.2344 24.8867 64.0898 24.8086 63.9414 24.7383C63.8008 24.668 63.6562 24.6328 63.5078 24.6328C63.2812 24.6328 63.0586 24.6523 62.8398 24.6914C62.6211 24.7305 62.3984 24.7656 62.1719 24.7969C62 24.8203 61.8125 24.8359 61.6094 24.8438C61.4062 24.8438 61.2148 24.8633 61.0352 24.9023C60.8633 24.9414 60.7188 25.0156 60.6016 25.125C60.4844 25.2266 60.4258 25.3906 60.4258 25.6172C60.4258 25.8906 60.4414 26.168 60.4727 26.4492C60.5117 26.7305 60.5312 27.0195 60.5312 27.3164C60.5312 27.9336 60.5039 28.5508 60.4492 29.168C60.4023 29.7773 60.3789 30.3945 60.3789 31.0195C60.3789 31.3086 60.3945 31.5977 60.4258 31.8867C60.457 32.168 60.4727 32.457 60.4727 32.7539C60.4727 33.1367 60.4414 33.5156 60.3789 33.8906C60.3242 34.2656 60.2969 34.6445 60.2969 35.0273C60.2969 35.1836 60.2969 35.3516 60.2969 35.5312C60.2969 35.7109 60.3125 35.8828 60.3438 36.0469C60.375 36.2109 60.4336 36.3594 60.5195 36.4922C60.6055 36.625 60.7344 36.7227 60.9062 36.7852C61.1484 36.8711 61.3867 36.957 61.6211 37.043C61.8633 37.1211 62.1172 37.1602 62.3828 37.1602C62.5391 37.1602 62.6914 37.125 62.8398 37.0547C62.9883 36.9766 63.1406 36.9141 63.2969 36.8672C63.3984 36.8359 63.5117 36.8086 63.6367 36.7852C63.7695 36.7539 63.8984 36.7227 64.0234 36.6914C64.1484 36.6523 64.2656 36.6055 64.375 36.5508C64.4922 36.4883 64.5898 36.4141 64.668 36.3281C64.7852 36.1953 64.8984 36.0781 65.0078 35.9766C65.1172 35.875 65.2695 35.8047 65.4648 35.7656C65.5586 35.75 65.6172 35.7188 65.6406 35.6719C65.6719 35.6172 65.6914 35.5586 65.6992 35.4961C65.7148 35.4258 65.7344 35.3555 65.7578 35.2852C65.7812 35.207 65.832 35.1406 65.9102 35.0859C66.0352 34.9922 66.1289 34.8828 66.1914 34.7578C66.2617 34.6328 66.3125 34.5 66.3438 34.3594C66.375 34.2188 66.3984 34.0781 66.4141 33.9375C66.4375 33.7891 66.4688 33.6445 66.5078 33.5039C66.5938 33.1914 66.6914 32.875 66.8008 32.5547C66.918 32.2344 66.9766 31.9102 66.9766 31.582C66.9766 31.4961 66.957 31.4219 66.918 31.3594C66.8789 31.2891 66.8594 31.2109 66.8594 31.125C66.8594 31.0781 66.8672 31.0508 66.8828 31.043C66.9062 31.0273 66.9297 31.0117 66.9531 30.9961C66.9766 30.9727 66.9961 30.9414 67.0117 30.9023C67.0352 30.8633 67.0469 30.7891 67.0469 30.6797ZM83.8281 31.1133C83.8281 31.2773 83.8125 31.4375 83.7812 31.5938C83.75 31.7422 83.7148 31.8945 83.6758 32.0508C83.6367 32.1992 83.6016 32.3516 83.5703 32.5078C83.5391 32.6641 83.5234 32.8203 83.5234 32.9766C83.5234 33.0391 83.5273 33.1016 83.5352 33.1641C83.5508 33.2188 83.5586 33.2773 83.5586 33.3398C83.5586 33.4961 83.5312 33.6445 83.4766 33.7852C83.4297 33.9258 83.3711 34.0625 83.3008 34.1953C83.2383 34.3125 83.1992 34.4336 83.1836 34.5586C83.1758 34.6836 83.168 34.8086 83.1602 34.9336C83.1602 35.0586 83.1484 35.1836 83.125 35.3086C83.1016 35.4336 83.0547 35.5508 82.9844 35.6602C82.9688 35.7383 82.9453 35.8555 82.9141 36.0117C82.8906 36.1602 82.8594 36.2656 82.8203 36.3281C82.8125 36.3438 82.7891 36.3555 82.75 36.3633C82.7109 36.3711 82.668 36.3789 82.6211 36.3867C82.5742 36.3945 82.5234 36.4102 82.4688 36.4336C82.4141 36.457 82.3672 36.4922 82.3281 36.5391C82.2891 36.5781 82.2578 36.6328 82.2344 36.7031C82.2109 36.7734 82.1836 36.8438 82.1523 36.9141C82.1211 36.9844 82.082 37.0469 82.0352 37.1016C81.9961 37.1484 81.9414 37.1719 81.8711 37.1719C81.8008 37.1719 81.7383 37.1602 81.6836 37.1367C81.6289 37.1055 81.5742 37.0781 81.5195 37.0547C81.4648 37.0234 81.4102 37 81.3555 36.9844C81.3008 36.9688 81.2344 36.9727 81.1562 36.9961C81.1797 37.0117 81.1875 37.0508 81.1797 37.1133C81.1719 37.168 81.1719 37.2266 81.1797 37.2891C81.1953 37.3516 81.2305 37.4102 81.2852 37.4648C81.3398 37.5195 81.4375 37.5469 81.5781 37.5469C81.6484 37.5469 81.7148 37.543 81.7773 37.5352C81.8477 37.5273 81.918 37.5156 81.9883 37.5C81.9258 37.6719 81.8516 37.8086 81.7656 37.9102C81.6797 38.0039 81.582 38.0898 81.4727 38.168C81.3711 38.2383 81.2617 38.3125 81.1445 38.3906C81.0352 38.4609 80.9258 38.5547 80.8164 38.6719C80.6836 38.8047 80.5547 38.8867 80.4297 38.918C80.3125 38.9492 80.1719 38.9883 80.0078 39.0352C79.8203 39.0898 79.6875 39.1562 79.6094 39.2344C79.5312 39.3125 79.4453 39.3867 79.3516 39.457C79.2578 39.5273 79.1289 39.5859 78.9648 39.6328C78.8086 39.6875 78.5586 39.7148 78.2148 39.7148C77.9023 39.7148 77.5898 39.7031 77.2773 39.6797C76.9727 39.6562 76.668 39.625 76.3633 39.5859C76.2227 39.5703 76.1055 39.543 76.0117 39.5039C75.9258 39.4727 75.8438 39.4336 75.7656 39.3867C75.6875 39.3477 75.6094 39.3047 75.5312 39.2578C75.4531 39.2109 75.3555 39.1641 75.2383 39.1172C75.1758 39.0938 75.1016 39.0625 75.0156 39.0234C74.9297 38.9922 74.8398 38.957 74.7461 38.918C74.6523 38.8789 74.5664 38.8398 74.4883 38.8008C74.4102 38.7539 74.3477 38.7109 74.3008 38.6719C74.2461 38.625 74.207 38.5742 74.1836 38.5195C74.168 38.457 74.1523 38.3945 74.1367 38.332C74.1211 38.2617 74.1016 38.1992 74.0781 38.1445C74.0625 38.082 74.0273 38.0312 73.9727 37.9922C73.8555 37.9766 73.7422 37.957 73.6328 37.9336C73.5234 37.9023 73.4141 37.8672 73.3047 37.8281C73.2734 37.7422 73.2422 37.6602 73.2109 37.582C73.1875 37.4961 73.1602 37.4102 73.1289 37.3242C73.0273 37.2148 72.9297 37.125 72.8359 37.0547C72.7422 36.9766 72.6602 36.8984 72.5898 36.8203C72.5195 36.7422 72.457 36.6523 72.4023 36.5508C72.3555 36.4414 72.3242 36.3008 72.3086 36.1289C72.2852 35.9258 72.2383 35.7305 72.168 35.543C72.0977 35.3477 72.0234 35.1562 71.9453 34.9688C71.875 34.7812 71.8086 34.5898 71.7461 34.3945C71.6914 34.1992 71.6641 34 71.6641 33.7969C71.6641 33.5859 71.707 33.3711 71.793 33.1523C71.5664 32.832 71.4258 32.4844 71.3711 32.1094C71.3164 31.7266 71.2891 31.3438 71.2891 30.9609C71.2891 30.8359 71.2891 30.7148 71.2891 30.5977C71.2969 30.4727 71.3008 30.3516 71.3008 30.2344C71.3008 30.1016 71.2695 30 71.207 29.9297C71.1523 29.8516 71.125 29.7578 71.125 29.6484C71.125 29.4766 71.1484 29.3086 71.1953 29.1445C71.25 28.9805 71.2852 28.8125 71.3008 28.6406C71.1992 28.625 71.1328 28.5859 71.1016 28.5234L71.125 28.4766C71.1797 28.3828 71.2227 28.2969 71.2539 28.2188C71.293 28.1406 71.3203 28.0664 71.3359 27.9961C71.3516 27.9258 71.3672 27.8516 71.3828 27.7734C71.3984 27.6953 71.418 27.6055 71.4414 27.5039C71.5039 27.1836 71.582 26.8711 71.6758 26.5664C71.7773 26.2617 71.875 25.9531 71.9688 25.6406C72.0703 25.2812 72.1953 24.9648 72.3438 24.6914C72.4922 24.418 72.7227 24.1641 73.0352 23.9297C73.168 23.8203 73.2891 23.7031 73.3984 23.5781C73.5078 23.4531 73.5859 23.3047 73.6328 23.1328C73.6719 23.1016 73.7148 23.082 73.7617 23.0742C73.8086 23.0664 73.8555 23.0625 73.9023 23.0625H73.9961C74.0508 23.0625 74.1016 23.0586 74.1484 23.0508C74.2031 23.0352 74.2539 23.0078 74.3008 22.9688C74.418 22.8594 74.5195 22.7812 74.6055 22.7344C74.6992 22.6875 74.8242 22.6641 74.9805 22.6641C75.0898 22.6641 75.1953 22.6758 75.2969 22.6992C75.3984 22.7148 75.5039 22.7344 75.6133 22.7578C75.6523 22.7188 75.707 22.668 75.7773 22.6055C75.8555 22.5352 75.9219 22.4883 75.9766 22.4648V22.5C75.9766 22.5312 75.9805 22.5625 75.9883 22.5938C76.0039 22.6172 76.0312 22.6289 76.0703 22.6289C76.1719 22.6289 76.2695 22.6055 76.3633 22.5586C76.457 22.5117 76.5547 22.4805 76.6562 22.4648C76.8828 22.4258 77.1094 22.3672 77.3359 22.2891C77.5625 22.2031 77.793 22.1602 78.0273 22.1602C78.2773 22.1602 78.543 22.1758 78.8242 22.207C79.1133 22.2383 79.3945 22.2969 79.668 22.3828C79.9414 22.4688 80.1953 22.5898 80.4297 22.7461C80.6641 22.8945 80.8516 23.0898 80.9922 23.332C81.0547 23.4414 81.1172 23.5273 81.1797 23.5898C81.2422 23.6445 81.3047 23.6953 81.3672 23.7422C81.4297 23.7812 81.4922 23.8242 81.5547 23.8711C81.6172 23.9102 81.6836 23.9688 81.7539 24.0469C81.9023 24.2188 82.0195 24.4062 82.1055 24.6094C82.1992 24.8047 82.3281 24.9805 82.4922 25.1367C82.6953 25.3242 82.8438 25.5508 82.9375 25.8164C83.0391 26.082 83.0898 26.3516 83.0898 26.625C83.0898 26.7109 83.0781 26.7969 83.0547 26.8828C83.0312 26.9688 83.0195 27.0586 83.0195 27.1523C83.0195 27.2305 83.0352 27.3125 83.0664 27.3984C83.1055 27.4844 83.1484 27.5742 83.1953 27.668C83.2422 27.7617 83.2852 27.8594 83.3242 27.9609C83.3633 28.0625 83.3906 28.1602 83.4062 28.2539C83.4297 28.4648 83.4648 28.6719 83.5117 28.875C83.5586 29.0703 83.6055 29.2734 83.6523 29.4844C83.7148 29.75 83.7617 30.0195 83.793 30.293C83.8242 30.5664 83.8359 30.8398 83.8281 31.1133ZM81.918 31.0312C81.918 30.5938 81.8789 30.1602 81.8008 29.7305C81.7305 29.3008 81.6602 28.8711 81.5898 28.4414C81.5586 28.2852 81.5078 28.1367 81.4375 27.9961C81.375 27.8555 81.3203 27.7109 81.2734 27.5625C81.1797 27.2812 81.0898 27 81.0039 26.7188C80.918 26.4375 80.832 26.1562 80.7461 25.875C80.6914 25.7031 80.582 25.5547 80.418 25.4297C80.2539 25.2969 80.0625 25.1875 79.8438 25.1016C79.625 25.0078 79.3867 24.9336 79.1289 24.8789C78.8789 24.8164 78.6367 24.7695 78.4023 24.7383C78.168 24.6992 77.9492 24.6758 77.7461 24.668C77.5508 24.6523 77.4023 24.6445 77.3008 24.6445L77.4531 24.6328L77.3242 24.6445C77.1523 24.6445 76.9805 24.6367 76.8086 24.6211C76.6445 24.6055 76.4766 24.5977 76.3047 24.5977C76.1641 24.5977 76.0234 24.6094 75.8828 24.6328C75.75 24.6484 75.6289 24.6992 75.5195 24.7852C75.2617 24.9883 75.0195 25.1797 74.793 25.3594C74.5664 25.5312 74.3789 25.7695 74.2305 26.0742C74.1836 26.1758 74.1328 26.25 74.0781 26.2969C74.0234 26.3359 73.9688 26.3789 73.9141 26.4258C73.8672 26.4648 73.8242 26.5117 73.7852 26.5664C73.7461 26.6211 73.7188 26.7109 73.7031 26.8359C73.6641 27.0625 73.6172 27.2891 73.5625 27.5156C73.5156 27.7344 73.4922 27.957 73.4922 28.1836C73.4922 28.4258 73.4688 28.668 73.4219 28.9102C73.3828 29.1445 73.3164 29.375 73.2227 29.6016C73.1992 29.6641 73.1758 29.7227 73.1523 29.7773C73.1367 29.832 73.1289 29.8906 73.1289 29.9531C73.1289 30.0703 73.1562 30.1719 73.2109 30.2578C73.2656 30.3359 73.293 30.4062 73.293 30.4688C73.293 30.5 73.2812 30.5195 73.2578 30.5273C73.2422 30.5273 73.2227 30.5352 73.1992 30.5508C73.1836 30.5586 73.1641 30.582 73.1406 30.6211C73.125 30.6602 73.1172 30.7305 73.1172 30.832C73.1172 31.0586 73.1172 31.2891 73.1172 31.5234C73.125 31.7578 73.1484 31.9883 73.1875 32.2148C73.2109 32.3477 73.25 32.4766 73.3047 32.6016C73.3672 32.7188 73.3984 32.8438 73.3984 32.9766C73.3984 33.0625 73.3789 33.1484 73.3398 33.2344C73.3008 33.3203 73.2812 33.4102 73.2812 33.5039C73.2812 33.6133 73.3125 33.7031 73.375 33.7734C73.4375 33.8359 73.5 33.9102 73.5625 33.9961C73.6094 34.0586 73.6484 34.1406 73.6797 34.2422C73.7188 34.3359 73.7539 34.4258 73.7852 34.5117C73.8242 34.5977 73.8594 34.6719 73.8906 34.7344C73.9219 34.7969 73.957 34.8281 73.9961 34.8281C74.0273 34.8281 74.0547 34.8242 74.0781 34.8164C74.1016 34.8008 74.1289 34.793 74.1602 34.793C74.3164 34.793 74.4336 34.8633 74.5117 35.0039C74.5977 35.1367 74.6406 35.2695 74.6406 35.4023C74.6406 35.5117 74.6719 35.6055 74.7344 35.6836C74.7969 35.7539 74.8711 35.8203 74.957 35.8828C75.043 35.9453 75.1289 36.0078 75.2148 36.0703C75.3086 36.125 75.3867 36.1875 75.4492 36.2578C75.5508 36.375 75.6289 36.4531 75.6836 36.4922C75.7461 36.5312 75.8008 36.5586 75.8477 36.5742C75.8945 36.582 75.9375 36.5898 75.9766 36.5977C76.0234 36.6055 76.082 36.6328 76.1523 36.6797C76.2383 36.7422 76.3242 36.8125 76.4102 36.8906C76.5039 36.9609 76.5938 37.0273 76.6797 37.0898C76.9219 37.2617 77.1914 37.3672 77.4883 37.4062C77.793 37.4375 78.0898 37.4531 78.3789 37.4531C78.4961 37.4531 78.6055 37.4258 78.707 37.3711C78.8086 37.3164 78.9102 37.2578 79.0117 37.1953C79.1133 37.125 79.2148 37.0625 79.3164 37.0078C79.4258 36.9531 79.543 36.9258 79.668 36.9258C79.7695 36.9258 79.875 36.9492 79.9844 36.9961C80.1641 36.7227 80.3359 36.5039 80.5 36.3398C80.6641 36.1758 80.8125 36.0156 80.9453 35.8594C81.0781 35.7031 81.1914 35.5234 81.2852 35.3203C81.3789 35.1172 81.4453 34.8398 81.4844 34.4883C81.5 34.3398 81.5391 34.2031 81.6016 34.0781C81.6719 33.9453 81.7148 33.8086 81.7305 33.668C81.7695 33.3555 81.7891 33.043 81.7891 32.7305C81.7969 32.418 81.8242 32.1055 81.8711 31.793C81.8867 31.668 81.8984 31.543 81.9062 31.418C81.9141 31.293 81.918 31.1641 81.918 31.0312Z" fill="#463857"/>
<path d="M39 51H77" stroke="#916B84" stroke-width="3" stroke-linecap="round"/>
<path d="M39 77H73" stroke="#916B84" stroke-width="3" stroke-linecap="round"/>
<path d="M39 64H81" stroke="#916B84" stroke-width="3" stroke-linecap="round"/>
<path d="M31 51L26 48.1132V53.8868L31 51ZM27 50.5C26.7239 50.5 26.5 50.7239 26.5 51C26.5 51.2761 26.7239 51.5 27 51.5V50.5Z" fill="#149684"/>
<path d="M31 77L26 74.1132V79.8868L31 77ZM27 76.5C26.7239 76.5 26.5 76.7239 26.5 77C26.5 77.2761 26.7239 77.5 27 77.5V76.5Z" fill="#149684"/>
<path d="M31 64L26 61.1132V66.8868L31 64ZM27 63.5C26.7239 63.5 26.5 63.7239 26.5 64C26.5 64.2761 26.7239 64.5 27 64.5V63.5Z" fill="#149684"/>
</svg>
